<?xml version="1.0" encoding="utf-8"?>
<!-- Generator: Adobe Illustrator 16.0.0, SVG Export Plug-In . SVG Version: 6.00 Build 0)  -->
<!DOCTYPE svg PUBLIC "-//W3C//DTD SVG 1.1//EN" "http://www.w3.org/Graphics/SVG/1.1/DTD/svg11.dtd">
<svg version="1.1" id="Layer_1" xmlns="http://www.w3.org/2000/svg" xmlns:xlink="http://www.w3.org/1999/xlink" x="0px" y="0px"
	 width="50.299px" height="60.805px" viewBox="0 0 50.299 60.805" enable-background="new 0 0 50.299 60.805" xml:space="preserve">
<path fill="none" stroke="#53AE47" stroke-width="2" stroke-miterlimit="10" d="M17.08,6.722c0,0-3.737-4.176-2.321-5.292
	c2.154-1.695,4.334,2.172,6.367,2.172c2.004,0,0.559-2.172,3.559-2.172s1.44,2.172,3.44,2.172s3.793-3.599,6.174-2.172
	c2.293,1.375-3.25,7.875-3.25,7.875s3,2.25,1.5,6.5c0,0,16.75,10.5,16.75,23.75c0,12.25-10.25,20.25-24.75,20.25h1.201
	c-14.5,0-24.75-8-24.75-20.25c0-13.25,16.75-23.75,16.75-23.75h10.342H17.75c-3,0-3.657-6.083,0.714-6.083h12.628"/>
<path fill="#53AE47" d="M22.346,41.27v7.979h-2.687v-20.38h7.516c2.23,0,3.977,0.569,5.242,1.708
	c1.264,1.138,1.896,2.645,1.896,4.521c0,1.978-0.619,3.501-1.854,4.57c-1.237,1.067-3.007,1.603-5.312,1.603H22.346z M22.346,39.071
	h4.829c1.438,0,2.538-0.339,3.303-1.017c0.766-0.677,1.148-1.657,1.148-2.938c0-1.216-0.383-2.187-1.148-2.916
	c-0.765-0.729-1.814-1.107-3.148-1.136h-4.983V39.071z"/>
<rect x="17.081" y="43.984" fill="#53AE47" width="15.21" height="2.114"/>
</svg>
