<?xml version="1.0" encoding="utf-8"?>
<!-- Generator: Adobe Illustrator 16.0.0, SVG Export Plug-In . SVG Version: 6.00 Build 0)  -->
<!DOCTYPE svg PUBLIC "-//W3C//DTD SVG 1.1//EN" "http://www.w3.org/Graphics/SVG/1.1/DTD/svg11.dtd">
<svg version="1.1" id="Layer_1" xmlns="http://www.w3.org/2000/svg" xmlns:xlink="http://www.w3.org/1999/xlink" x="0px" y="0px"
	 width="68.001px" height="46.567px" viewBox="0 0 68.001 46.567" enable-background="new 0 0 68.001 46.567" xml:space="preserve">
<path fill="none" stroke="#53AE47" stroke-width="2" stroke-linecap="round" stroke-linejoin="round" stroke-miterlimit="10" d="
	M45.167,27.193v9.166c0,1.657-1.343,3-3,3H4c-1.656,0-3-1.343-3-3v-6.333"/>
<path fill="none" stroke="#53AE47" stroke-width="2" stroke-linecap="round" stroke-linejoin="round" stroke-miterlimit="10" d="
	M1.001,23.209V11.026c0-1.657,1.343-3,3-3h38.166c1.656,0,3,1.343,3,3v2.5"/>
<polyline fill="none" stroke="#53AE47" stroke-width="2" stroke-linecap="round" stroke-linejoin="round" stroke-miterlimit="10" points="
	33.5,15.618 1,15.618 1,23.209 26.333,23.209 "/>
<path fill="none" stroke="#53AE47" stroke-width="2" stroke-linecap="round" stroke-linejoin="round" stroke-miterlimit="10" d="
	M52.334,12.525l-18.333,3.092c-6,1.241-7,4.61-6.834,6.592c0.167,1.983,1.334,5.815,9.5,4.983l15.667-1
	c0,0,3.167,5.461,14.667,6.896"/>
<path fill="none" stroke="#53AE47" stroke-width="2" stroke-linecap="round" stroke-linejoin="round" stroke-miterlimit="10" d="
	M45.167,36.359c0,0,5.499-3.185,14.333-5.093"/>
<path fill="none" stroke="#53AE47" stroke-width="2" stroke-linecap="round" stroke-linejoin="round" stroke-miterlimit="10" d="
	M22.167,8.025c0,0,4.333-4.616,10.333-5.782c0,0,16.5-2.051,21-0.885C58,2.525,67,8.025,67,8.025"/>
<path fill="none" stroke="#53AE47" stroke-width="2" stroke-linecap="round" stroke-linejoin="round" stroke-miterlimit="10" d="
	M36.667,40.136c0,2.255-1.828,4.083-4.083,4.083c-2.256,0-4.084-1.828-4.084-4.083"/>
<path fill="none" stroke="#53AE47" stroke-width="2" stroke-linecap="round" stroke-linejoin="round" stroke-miterlimit="10" d="
	M28.501,41.484c0,2.255-1.828,4.083-4.084,4.083s-4.084-1.828-4.084-4.083v-2.125"/>
</svg>
