<?xml version="1.0" encoding="utf-8"?>
<!-- Generator: Adobe Illustrator 16.0.0, SVG Export Plug-In . SVG Version: 6.00 Build 0)  -->
<!DOCTYPE svg PUBLIC "-//W3C//DTD SVG 1.1//EN" "http://www.w3.org/Graphics/SVG/1.1/DTD/svg11.dtd">
<svg version="1.1" id="Layer_1" xmlns="http://www.w3.org/2000/svg" xmlns:xlink="http://www.w3.org/1999/xlink" x="0px" y="0px"
	 width="58px" height="46.999px" viewBox="0 0 58 46.999" enable-background="new 0 0 58 46.999" xml:space="preserve">
<line fill="none" stroke="#53AE47" stroke-width="2" stroke-miterlimit="10" x1="0" y1="45.999" x2="58" y2="45.999"/>
<path fill="none" stroke="#53AE47" stroke-width="2" stroke-miterlimit="10" d="M49.772,38.294C51.827,34.664,53,30.469,53,26
	C53,12.192,41.808,1,28,1C14.193,1,3,12.192,3,26c0,8.177,3.926,15.438,9.997,19.999"/>
<path fill="#53AE47" d="M24.006,25.161l-5.641,5.641l-1.901-1.899l14.412-14.41l5.314,5.314c1.577,1.577,2.41,3.216,2.499,4.915
	c0.089,1.7-0.53,3.211-1.856,4.538c-1.398,1.398-2.912,2.039-4.543,1.92c-1.629-0.118-3.259-0.993-4.889-2.622L24.006,25.161z
	 M25.561,23.607l3.415,3.415c1.016,1.016,2.033,1.555,3.054,1.615c1.021,0.063,1.983-0.358,2.89-1.265
	c0.858-0.86,1.275-1.816,1.25-2.874c-0.025-1.057-0.5-2.066-1.424-3.03l-3.523-3.523L25.561,23.607z"/>
<rect x="15.389" y="28.426" transform="matrix(0.7071 0.7071 -0.7071 0.7071 27.5818 -7.6236)" fill="#53AE47" width="15.21" height="2.113"/>
</svg>
