<?xml version="1.0" encoding="utf-8"?>
<!-- Generator: Adobe Illustrator 16.0.0, SVG Export Plug-In . SVG Version: 6.00 Build 0)  -->
<!DOCTYPE svg PUBLIC "-//W3C//DTD SVG 1.1//EN" "http://www.w3.org/Graphics/SVG/1.1/DTD/svg11.dtd">
<svg version="1.1" id="Layer_1" xmlns="http://www.w3.org/2000/svg" xmlns:xlink="http://www.w3.org/1999/xlink" x="0px" y="0px"
	 width="58.5px" height="53.84px" viewBox="0 0 58.5 53.84" enable-background="new 0 0 58.5 53.84" xml:space="preserve">
<path fill="none" stroke="#FFFFFF" stroke-width="2" stroke-miterlimit="10" d="M53.5,41.285H5c-2.209,0-4-1.791-4-4V5
	c0-2.21,1.791-4,4-4h48.5c2.209,0,4,1.79,4,4v32.285C57.5,39.494,55.709,41.285,53.5,41.285z"/>
<path fill="none" stroke="#FFFFFF" stroke-width="2" stroke-miterlimit="10" d="M38.014,52.84H20.486c-0.55,0-1-0.45-1-1v-2.308
	c0-0.553,0.448-1,1-1h17.528c0.552,0,1,0.447,1,1v2.308C39.014,52.39,38.564,52.84,38.014,52.84z"/>
<polygon fill="none" stroke="#FFFFFF" stroke-width="2" stroke-miterlimit="10" points="35.181,48.531 23.319,48.531 25.26,41.285 
	33.239,41.285 "/>
<line fill="none" stroke="#FFFFFF" stroke-width="2" stroke-miterlimit="10" x1="1.833" y1="35.785" x2="56.833" y2="35.785"/>
</svg>
