<?xml version="1.0" encoding="utf-8"?>
<!-- Generator: Adobe Illustrator 16.0.0, SVG Export Plug-In . SVG Version: 6.00 Build 0)  -->
<!DOCTYPE svg PUBLIC "-//W3C//DTD SVG 1.1//EN" "http://www.w3.org/Graphics/SVG/1.1/DTD/svg11.dtd">
<svg version="1.1" id="Layer_1" xmlns="http://www.w3.org/2000/svg" xmlns:xlink="http://www.w3.org/1999/xlink" x="0px" y="0px"
	 width="57.001px" height="47.911px" viewBox="0 0 57.001 47.911" enable-background="new 0 0 57.001 47.911" xml:space="preserve">
<path fill="#53AE47" d="M12.292,26.046v7.978H9.604v-20.38h7.518c2.229,0,3.977,0.569,5.242,1.708
	c1.264,1.138,1.896,2.645,1.896,4.521c0,1.978-0.618,3.5-1.854,4.569c-1.237,1.068-3.008,1.604-5.312,1.604H12.292z M12.292,23.848
	h4.829c1.437,0,2.538-0.339,3.303-1.016c0.765-0.679,1.148-1.657,1.148-2.938c0-1.215-0.384-2.187-1.148-2.917
	c-0.765-0.729-1.815-1.107-3.149-1.135h-4.982V23.848z"/>
<rect x="7.026" y="28.76" fill="#53AE47" width="15.21" height="2.114"/>
<path fill="none" stroke="#53AE47" stroke-width="2" stroke-miterlimit="10" d="M25.001,42.911H4c-1.657,0-3-1.343-3-3V8.244
	c0-1.656,1.343-3,3-3h20.334"/>
<polyline fill="none" stroke="#53AE47" stroke-width="2" stroke-linecap="round" stroke-linejoin="round" stroke-miterlimit="10" points="
	20.015,1 24.259,5.244 20.015,9.489 "/>
<path fill="none" stroke="#53AE47" stroke-width="2" stroke-miterlimit="10" d="M32,5h21.001c1.657,0,3,1.344,3,3v31.667
	c0,1.656-1.343,3-3,3H32.667"/>
<polyline fill="none" stroke="#53AE47" stroke-width="2" stroke-linecap="round" stroke-linejoin="round" stroke-miterlimit="10" points="
	36.986,46.911 32.742,42.667 36.986,38.423 "/>
<path fill="#53AE47" d="M45.409,28.613c0-0.775-0.271-1.427-0.814-1.958c-0.543-0.53-1.459-1.01-2.747-1.44
	c-1.794-0.547-3.102-1.261-3.922-2.141c-0.821-0.88-1.232-1.998-1.232-3.354c0-1.381,0.402-2.513,1.207-3.397
	c0.804-0.884,1.909-1.41,3.315-1.578v-2.768h1.882v2.779c1.415,0.194,2.516,0.788,3.304,1.781c0.787,0.994,1.181,2.354,1.181,4.08
	h-2.323c0-1.191-0.283-2.137-0.848-2.838c-0.563-0.702-1.326-1.053-2.286-1.053c-1.002,0-1.769,0.26-2.299,0.778
	c-0.53,0.52-0.796,1.242-0.796,2.17c0,0.861,0.28,1.547,0.84,2.057c0.561,0.511,1.482,0.975,2.767,1.393
	c1.284,0.417,2.286,0.876,3.007,1.377c0.72,0.502,1.25,1.085,1.591,1.75s0.512,1.444,0.512,2.337c0,1.423-0.427,2.568-1.282,3.437
	c-0.854,0.866-2.053,1.381-3.594,1.541v2.411h-1.869v-2.411c-1.566-0.145-2.794-0.701-3.682-1.675
	c-0.889-0.973-1.333-2.293-1.333-3.959h2.337c0,1.17,0.307,2.071,0.922,2.702c0.615,0.632,1.486,0.948,2.615,0.948
	c1.104,0,1.97-0.266,2.602-0.796C45.094,30.255,45.409,29.531,45.409,28.613"/>
</svg>
