<?xml version="1.0" encoding="utf-8"?>
<!-- Generator: Adobe Illustrator 16.0.0, SVG Export Plug-In . SVG Version: 6.00 Build 0)  -->
<!DOCTYPE svg PUBLIC "-//W3C//DTD SVG 1.1//EN" "http://www.w3.org/Graphics/SVG/1.1/DTD/svg11.dtd">
<svg version="1.1" id="Layer_1" xmlns="http://www.w3.org/2000/svg" xmlns:xlink="http://www.w3.org/1999/xlink" x="0px" y="0px"
	 width="26.256px" height="52.508px" viewBox="0 0 26.256 52.508" enable-background="new 0 0 26.256 52.508" xml:space="preserve">
<path fill="#CDCCCC" d="M26.254,23.943c0,1.261-1.051,2.311-2.312,2.311H2.31c-1.259,0-2.31-1.05-2.31-2.311V2.312
	C0,1.051,1.051,0,2.31,0h21.634c1.26,0,2.312,1.051,2.312,2.312v21.631H26.254z M21.87,3.413c-0.972-0.341-2.757-0.393-3.754-0.393
	c-2.914,0-4.121,2.204-4.121,4.855v1.761h-1.733v3.49h1.733v9.636h3.518v-9.636h3.492v-3.49h-3.492V7.562
	c0-0.867,1.471-1.313,2.152-1.313c0.551,0,1.155,0.105,1.681,0.264L21.87,3.413z"/>
<path fill="#52AE30" d="M26.254,50.197c0,1.261-1.051,2.311-2.312,2.311H2.31c-1.259,0-2.31-1.05-2.31-2.311V28.566
	c0-1.262,1.051-2.312,2.31-2.312h21.634c1.26,0,2.312,1.051,2.312,2.312v21.631H26.254z M21.869,29.746
	c-0.972-0.341-2.757-0.394-3.754-0.394c-2.914,0-4.121,2.205-4.121,4.855v1.762H12.26v3.489h1.733v9.636h3.518v-9.636h3.492V35.97
	h-3.492v-2.074c0-0.867,1.471-1.313,2.152-1.313c0.551,0,1.155,0.104,1.681,0.265L21.869,29.746z"/>
</svg>
