<?xml version="1.0" encoding="utf-8"?>
<!-- Generator: Adobe Illustrator 16.0.0, SVG Export Plug-In . SVG Version: 6.00 Build 0)  -->
<!DOCTYPE svg PUBLIC "-//W3C//DTD SVG 1.1//EN" "http://www.w3.org/Graphics/SVG/1.1/DTD/svg11.dtd">
<svg version="1.1" id="Layer_1" xmlns="http://www.w3.org/2000/svg" xmlns:xlink="http://www.w3.org/1999/xlink" x="0px" y="0px"
	 width="12.54px" height="19.257px" viewBox="0 0 12.54 19.257" enable-background="new 0 0 12.54 19.257" xml:space="preserve">
<path fill="none" stroke="#989898" stroke-linecap="round" stroke-linejoin="round" stroke-miterlimit="10" d="M7.821,15.787
	l1.293-2.476l2.361-4.521l-0.021-0.001c0.371-0.762,0.585-1.615,0.585-2.519c0-3.187-2.584-5.77-5.77-5.77
	C3.083,0.5,0.5,3.083,0.5,6.27c0,0.904,0.214,1.757,0.585,2.519L1.065,8.79l5.205,9.967L7.821,15.787z"/>
<path fill="#989898" d="M6.27,3.532c1.426,0,2.586,1.16,2.586,2.586c0,1.427-1.16,2.587-2.586,2.587
	c-1.426,0-2.586-1.16-2.586-2.587C3.684,4.692,4.844,3.532,6.27,3.532 M6.27,2.532c-1.981,0-3.586,1.606-3.586,3.586
	S4.289,9.705,6.27,9.705s3.586-1.606,3.586-3.587S8.251,2.532,6.27,2.532"/>
</svg>
