<?xml version="1.0" encoding="utf-8"?>
<!-- Generator: Adobe Illustrator 16.0.0, SVG Export Plug-In . SVG Version: 6.00 Build 0)  -->
<!DOCTYPE svg PUBLIC "-//W3C//DTD SVG 1.1//EN" "http://www.w3.org/Graphics/SVG/1.1/DTD/svg11.dtd">
<svg version="1.1" id="Layer_1" xmlns="http://www.w3.org/2000/svg" xmlns:xlink="http://www.w3.org/1999/xlink" x="0px" y="0px"
	 width="20px" height="15px" viewBox="0 0 20 15" enable-background="new 0 0 20 15" xml:space="preserve">
<path fill="#53AE47" d="M18.5,15h-17C0.675,15,0,14.325,0,13.5C0,12.676,0.675,12,1.5,12h17c0.825,0,1.5,0.676,1.5,1.5
	C20,14.325,19.325,15,18.5,15"/>
<path fill="#53AE47" d="M18.5,9h-17C0.675,9,0,8.325,0,7.5C0,6.675,0.675,6,1.5,6h17C19.325,6,20,6.675,20,7.5
	C20,8.325,19.325,9,18.5,9"/>
<path fill="#53AE47" d="M18.5,3h-17C0.675,3,0,2.325,0,1.5C0,0.675,0.675,0,1.5,0h17C19.325,0,20,0.675,20,1.5
	C20,2.325,19.325,3,18.5,3"/>
</svg>
