<?xml version="1.0" encoding="utf-8"?>
<!-- Generator: Adobe Illustrator 16.0.0, SVG Export Plug-In . SVG Version: 6.00 Build 0)  -->
<!DOCTYPE svg PUBLIC "-//W3C//DTD SVG 1.1//EN" "http://www.w3.org/Graphics/SVG/1.1/DTD/svg11.dtd">
<svg version="1.1" id="Layer_1" xmlns="http://www.w3.org/2000/svg" xmlns:xlink="http://www.w3.org/1999/xlink" x="0px" y="0px"
	 width="65.125px" height="43.657px" viewBox="0 0 65.125 43.657" enable-background="new 0 0 65.125 43.657" xml:space="preserve">
<path fill="none" stroke="#FFFFFF" stroke-width="2" stroke-miterlimit="10" d="M60.125,42.657H5c-2.209,0-4-1.791-4-4V5
	c0-2.209,1.791-4,4-4h55.125c2.209,0,4,1.791,4,4v33.657C64.125,40.866,62.333,42.657,60.125,42.657z"/>
<line fill="none" stroke="#FFFFFF" stroke-width="2" stroke-miterlimit="10" x1="6.833" y1="41.92" x2="6.833" y2="0.92"/>
<line fill="none" stroke="#FFFFFF" stroke-width="2" stroke-miterlimit="10" x1="54.833" y1="41.92" x2="54.833" y2="0.92"/>
<path fill="#FFFFFF" d="M61.037,22.636c0-1.063-0.844-1.925-1.884-1.925c-1.039,0-1.882,0.862-1.882,1.925
	c0,1.063,0.843,1.925,1.882,1.925C60.193,24.561,61.037,23.699,61.037,22.636"/>
</svg>
