<?xml version="1.0" encoding="utf-8"?>
<!-- Generator: Adobe Illustrator 16.0.0, SVG Export Plug-In . SVG Version: 6.00 Build 0)  -->
<!DOCTYPE svg PUBLIC "-//W3C//DTD SVG 1.1//EN" "http://www.w3.org/Graphics/SVG/1.1/DTD/svg11.dtd">
<svg version="1.1" id="Layer_1" xmlns="http://www.w3.org/2000/svg" xmlns:xlink="http://www.w3.org/1999/xlink" x="0px" y="0px"
	 width="31.5px" height="57px" viewBox="0 0 31.5 57" enable-background="new 0 0 31.5 57" xml:space="preserve">
<path fill="none" stroke="#53AE47" stroke-width="2" stroke-miterlimit="10" d="M30.5,10.637v42.702c0,1.47-1.165,2.661-2.604,2.661
	H3.603C2.165,56,1,54.809,1,53.339V3.662C1,2.192,2.165,1,3.603,1h24.294C29.335,1,30.5,2.192,30.5,3.662v6.505h-0.868H1.816"/>
<line fill="none" stroke="#53AE47" stroke-width="2" stroke-miterlimit="10" x1="29.632" y1="45.207" x2="1.817" y2="45.207"/>
<path fill="#53AE47" d="M17.435,50.382c0-0.951-0.754-1.723-1.686-1.723c-0.931,0-1.685,0.771-1.685,1.723s0.754,1.724,1.685,1.724
	C16.681,52.105,17.435,51.333,17.435,50.382"/>
</svg>
