<?xml version="1.0" encoding="utf-8"?>
<!-- Generator: Adobe Illustrator 16.0.0, SVG Export Plug-In . SVG Version: 6.00 Build 0)  -->
<!DOCTYPE svg PUBLIC "-//W3C//DTD SVG 1.1//EN" "http://www.w3.org/Graphics/SVG/1.1/DTD/svg11.dtd">
<svg version="1.1" id="Layer_1" xmlns="http://www.w3.org/2000/svg" xmlns:xlink="http://www.w3.org/1999/xlink" x="0px" y="0px"
	 width="77px" height="31.5px" viewBox="0 0 77 31.5" enable-background="new 0 0 77 31.5" xml:space="preserve">
<path fill="none" stroke="#FFFFFF" stroke-width="2" stroke-miterlimit="10" d="M56.363,30.5H3.661C2.191,30.5,1,29.335,1,27.897
	V3.603C1,2.166,2.191,1,3.661,1h69.677C74.809,1,76,2.166,76,3.603v24.294c0,1.438-1.191,2.603-2.662,2.603H56.833v-0.868"/>
<polygon fill="#FFFFFF" points="12.983,16.473 7.796,14.787 8.296,13.211 13.483,15.131 13.42,9.355 15.046,9.355 14.92,15.178 
	19.983,13.196 20.499,14.771 15.296,16.567 18.78,21.16 17.452,22.145 14.108,17.379 10.92,22.113 9.592,21.16 "/>
<polygon fill="none" stroke="#FFFFFF" stroke-miterlimit="10" points="12.983,16.473 7.796,14.787 8.296,13.211 13.483,15.131 
	13.42,9.355 15.046,9.355 14.92,15.178 19.983,13.196 20.499,14.771 15.296,16.567 18.78,21.16 17.452,22.145 14.108,17.379 
	10.92,22.113 9.592,21.16 "/>
<polygon fill="#FFFFFF" points="29.469,16.473 24.282,14.787 24.782,13.211 29.969,15.131 29.906,9.355 31.532,9.355 31.406,15.178 
	36.469,13.196 36.985,14.771 31.782,16.567 35.266,21.16 33.938,22.145 30.594,17.379 27.406,22.113 26.078,21.16 "/>
<polygon fill="none" stroke="#FFFFFF" stroke-miterlimit="10" points="29.469,16.473 24.282,14.787 24.782,13.211 29.969,15.131 
	29.906,9.355 31.532,9.355 31.406,15.178 36.469,13.196 36.985,14.771 31.782,16.567 35.266,21.16 33.938,22.145 30.594,17.379 
	27.406,22.113 26.078,21.16 "/>
<polygon fill="#FFFFFF" points="45.955,16.473 40.768,14.787 41.268,13.211 46.455,15.131 46.392,9.355 48.018,9.355 47.892,15.178 
	52.955,13.196 53.471,14.771 48.268,16.567 51.752,21.16 50.424,22.145 47.08,17.379 43.892,22.113 42.563,21.16 "/>
<polygon fill="none" stroke="#FFFFFF" stroke-miterlimit="10" points="45.955,16.473 40.768,14.787 41.268,13.211 46.455,15.131 
	46.392,9.355 48.018,9.355 47.892,15.178 52.955,13.196 53.471,14.771 48.268,16.567 51.752,21.16 50.424,22.145 47.08,17.379 
	43.892,22.113 42.563,21.16 "/>
<polygon fill="#FFFFFF" points="62.44,16.473 57.253,14.787 57.753,13.211 62.94,15.131 62.877,9.355 64.503,9.355 64.377,15.178 
	69.44,13.196 69.956,14.771 64.753,16.567 68.237,21.16 66.909,22.145 63.565,17.379 60.377,22.113 59.049,21.16 "/>
<polygon fill="none" stroke="#FFFFFF" stroke-miterlimit="10" points="62.44,16.473 57.253,14.787 57.753,13.211 62.94,15.131 
	62.877,9.355 64.503,9.355 64.377,15.178 69.44,13.196 69.956,14.771 64.753,16.567 68.237,21.16 66.909,22.145 63.565,17.379 
	60.377,22.113 59.049,21.16 "/>
</svg>
