<?xml version="1.0" encoding="utf-8"?>
<!-- Generator: Adobe Illustrator 16.0.0, SVG Export Plug-In . SVG Version: 6.00 Build 0)  -->
<!DOCTYPE svg PUBLIC "-//W3C//DTD SVG 1.1//EN" "http://www.w3.org/Graphics/SVG/1.1/DTD/svg11.dtd">
<svg version="1.1" id="Layer_1" xmlns="http://www.w3.org/2000/svg" xmlns:xlink="http://www.w3.org/1999/xlink" x="0px" y="0px"
	 width="26.255px" height="52.507px" viewBox="0 0 26.255 52.507" enable-background="new 0 0 26.255 52.507" xml:space="preserve">
<path fill="#CDCCCC" d="M26.254,23.943c0,1.262-1.051,2.311-2.311,2.311H2.311C1.05,26.253,0,25.205,0,23.943V2.311
	C0,1.049,1.05,0,2.311,0h21.632c1.261,0,2.312,1.049,2.312,2.311L26.254,23.943L26.254,23.943z M22.395,22.394
	c0-10.212-8.321-18.508-18.536-18.535v3.544c8.271,0.027,14.939,6.722,14.965,14.991H22.395z M16.094,22.394
	c0-6.746-5.487-12.234-12.235-12.234v3.546c4.778,0,8.664,3.91,8.664,8.688H16.094z M6.17,17.748c-1.26,0-2.311,1.076-2.311,2.336
	c0,1.262,1.051,2.311,2.311,2.311c1.26,0,2.336-1.049,2.336-2.311C8.506,18.798,7.457,17.748,6.17,17.748"/>
<path fill="#52AE30" d="M26.254,50.197c0,1.262-1.051,2.311-2.311,2.311H2.311C1.05,52.507,0,51.458,0,50.197V28.565
	c0-1.263,1.05-2.312,2.311-2.312h21.632c1.261,0,2.312,1.049,2.312,2.312L26.254,50.197L26.254,50.197z M22.395,48.648
	c0-10.212-8.321-18.508-18.536-18.535v3.544c8.271,0.027,14.939,6.722,14.965,14.991H22.395z M16.094,48.648
	c0-6.746-5.487-12.234-12.235-12.234v3.547c4.778,0,8.664,3.91,8.664,8.688H16.094z M6.17,44.001c-1.26,0-2.311,1.076-2.311,2.336
	c0,1.262,1.051,2.311,2.311,2.311c1.26,0,2.336-1.049,2.336-2.311C8.506,45.052,7.457,44.001,6.17,44.001"/>
</svg>
