<?xml version="1.0" encoding="utf-8"?>
<!-- Generator: Adobe Illustrator 16.0.0, SVG Export Plug-In . SVG Version: 6.00 Build 0)  -->
<!DOCTYPE svg PUBLIC "-//W3C//DTD SVG 1.1//EN" "http://www.w3.org/Graphics/SVG/1.1/DTD/svg11.dtd">
<svg version="1.1" id="Layer_1" xmlns="http://www.w3.org/2000/svg" xmlns:xlink="http://www.w3.org/1999/xlink" x="0px" y="0px"
	 width="48.431px" height="55.842px" viewBox="0 0 48.431 55.842" enable-background="new 0 0 48.431 55.842" xml:space="preserve">
<polygon fill="none" stroke="#53AE47" stroke-width="2" stroke-linejoin="round" stroke-miterlimit="10" points="41.746,7.01 
	35.875,1.138 30.072,6.941 24.151,1.02 18.349,6.823 12.526,1 6.645,6.882 1,1.237 1,29.421 1,54.517 6.685,48.832 12.556,54.704 
	18.358,48.901 24.279,54.823 30.082,49.02 35.904,54.842 41.785,48.961 47.431,54.604 47.431,29.421 47.431,1.326 "/>
<line fill="none" stroke="#53AE47" stroke-width="2" stroke-linejoin="round" stroke-miterlimit="10" x1="7.947" y1="16.71" x2="33.842" y2="16.71"/>
<line fill="none" stroke="#53AE47" stroke-width="2" stroke-linejoin="round" stroke-miterlimit="10" x1="7.947" y1="22.71" x2="34.657" y2="22.71"/>
<line fill="none" stroke="#53AE47" stroke-width="2" stroke-linejoin="round" stroke-miterlimit="10" x1="7.947" y1="28.405" x2="31.842" y2="28.405"/>
<line fill="none" stroke="#53AE47" stroke-width="2" stroke-linejoin="round" stroke-miterlimit="10" x1="7.947" y1="34.405" x2="31.842" y2="34.405"/>
<line fill="none" stroke="#53AE47" stroke-width="2" stroke-linejoin="round" stroke-miterlimit="10" x1="7.947" y1="40.405" x2="36.842" y2="40.405"/>
</svg>
