<?xml version="1.0" encoding="utf-8"?>
<!-- Generator: Adobe Illustrator 16.0.0, SVG Export Plug-In . SVG Version: 6.00 Build 0)  -->
<!DOCTYPE svg PUBLIC "-//W3C//DTD SVG 1.1//EN" "http://www.w3.org/Graphics/SVG/1.1/DTD/svg11.dtd">
<svg version="1.1" id="Layer_1" xmlns="http://www.w3.org/2000/svg" xmlns:xlink="http://www.w3.org/1999/xlink" x="0px" y="0px"
	 width="59.748px" height="54px" viewBox="0 0 59.748 54" enable-background="new 0 0 59.748 54" xml:space="preserve">
<path fill="#53AE47" d="M17.2,16.121V22h-1.979V6.982h5.537c1.645,0,2.932,0.42,3.863,1.26c0.932,0.838,1.397,1.948,1.397,3.331
	c0,1.457-0.455,2.579-1.366,3.366c-0.911,0.788-2.216,1.182-3.914,1.182H17.2z M17.2,14.502h3.558c1.06,0,1.87-0.25,2.435-0.749
	c0.563-0.499,0.846-1.221,0.846-2.165c0-0.896-0.282-1.611-0.846-2.149c-0.564-0.537-1.337-0.815-2.32-0.836H17.2V14.502z"/>
<rect x="13.319" y="18.122" fill="#53AE47" width="11.208" height="1.557"/>
<line fill="none" stroke="#53AE47" stroke-width="2" stroke-linecap="round" stroke-linejoin="round" stroke-miterlimit="10" x1="1" y1="1" x2="57.566" y2="1"/>
<polyline fill="none" stroke="#53AE47" stroke-width="2" stroke-linecap="round" stroke-linejoin="round" stroke-miterlimit="10" points="
	53.667,8.603 53.667,28.333 45.724,28.333 "/>
<polyline fill="none" stroke="#53AE47" stroke-width="2" stroke-linecap="round" stroke-linejoin="round" stroke-miterlimit="10" points="
	35.295,28.333 4.667,28.333 4.667,1 53.667,1 "/>
<path fill="none" stroke="#53AE47" stroke-width="2" stroke-linecap="round" stroke-linejoin="round" stroke-miterlimit="10" d="
	M31.364,52c0,0-1.731-9.14,4.333-13.474L35.738,25c0.042-4.807,2.002-5.927,4.002-6.16c2-0.235,4.117,0.839,4.927,6.16
	c0.808,5.313,1.197,12.026,1.197,12.026"/>
<path fill="none" stroke="#53AE47" stroke-width="2" stroke-linecap="round" stroke-linejoin="round" stroke-miterlimit="10" d="
	M53.667,14c0,0,8.03,8,3.899,26.206L50.434,53"/>
<path fill="none" stroke="#53AE47" stroke-width="2" stroke-linecap="round" stroke-linejoin="round" stroke-miterlimit="10" d="
	M26.019,28.622c0,0,6.81,6.623,7.229,12.667"/>
</svg>
