<?xml version="1.0" encoding="utf-8"?>
<!-- Generator: Adobe Illustrator 16.0.0, SVG Export Plug-In . SVG Version: 6.00 Build 0)  -->
<!DOCTYPE svg PUBLIC "-//W3C//DTD SVG 1.1//EN" "http://www.w3.org/Graphics/SVG/1.1/DTD/svg11.dtd">
<svg version="1.1" id="Layer_1" xmlns="http://www.w3.org/2000/svg" xmlns:xlink="http://www.w3.org/1999/xlink" x="0px" y="0px"
	 width="48.431px" height="55.842px" viewBox="0 0 48.431 55.842" enable-background="new 0 0 48.431 55.842" xml:space="preserve">
<path fill="#53AE47" d="M32.22,36.919v5.79h-1.95V27.921h5.454c1.618,0,2.886,0.413,3.804,1.239c0.917,0.826,1.376,1.919,1.376,3.28
	c0,1.436-0.449,2.54-1.346,3.316c-0.897,0.775-2.182,1.162-3.854,1.162H32.22z M32.22,35.325h3.504c1.043,0,1.842-0.246,2.396-0.738
	c0.556-0.491,0.833-1.202,0.833-2.131c0-0.882-0.277-1.587-0.833-2.117c-0.555-0.528-1.316-0.803-2.284-0.824H32.22V35.325z"/>
<rect x="28.399" y="38.89" fill="#53AE47" width="11.036" height="1.534"/>
<polygon fill="none" stroke="#53AE47" stroke-width="2" stroke-linejoin="round" stroke-miterlimit="10" points="41.747,7.01 
	35.875,1.138 30.073,6.94 24.152,1.02 18.349,6.823 12.527,1 6.646,6.882 1,1.236 1,29.421 1,54.516 6.686,48.832 12.556,54.703 
	18.359,48.9 24.28,54.821 30.083,49.02 35.905,54.842 41.786,48.96 47.431,54.604 47.431,29.421 47.431,1.326 "/>
<line fill="none" stroke="#53AE47" stroke-width="2" stroke-linejoin="round" stroke-miterlimit="10" x1="7.948" y1="16.71" x2="33.843" y2="16.71"/>
<line fill="none" stroke="#53AE47" stroke-width="2" stroke-linejoin="round" stroke-miterlimit="10" x1="7.948" y1="22.71" x2="23.658" y2="22.71"/>
</svg>
