<?xml version="1.0" encoding="utf-8"?>
<!-- Generator: Adobe Illustrator 16.0.0, SVG Export Plug-In . SVG Version: 6.00 Build 0)  -->
<!DOCTYPE svg PUBLIC "-//W3C//DTD SVG 1.1//EN" "http://www.w3.org/Graphics/SVG/1.1/DTD/svg11.dtd">
<svg version="1.1" id="Layer_1" xmlns="http://www.w3.org/2000/svg" xmlns:xlink="http://www.w3.org/1999/xlink" x="0px" y="0px"
	 width="26.254px" height="52.51px" viewBox="0 0 26.254 52.51" enable-background="new 0 0 26.254 52.51" xml:space="preserve">
<path fill="#CDCCCC" d="M26.254,2.311v21.632c0,1.262-1.051,2.312-2.311,2.312H2.311C1.05,26.254,0,25.204,0,23.943V2.311
	C0,1.05,1.05,0,2.311,0h21.632C25.204,0,26.254,1.05,26.254,2.311 M23.262,6.825c-0.762,0.342-1.549,0.577-2.391,0.656
	c0.867-0.498,1.523-1.339,1.838-2.284c-0.812,0.474-1.705,0.814-2.65,0.997c-0.787-0.839-1.891-1.312-3.02-1.312
	c-2.311,0-4.175,1.864-4.175,4.174c0,0.316,0.027,0.631,0.105,0.945C9.636,9.818,6.511,8.243,4.385,5.644
	c-0.368,0.63-0.552,1.365-0.552,2.1c0,1.392,0.682,2.678,1.864,3.467C5.015,11.184,4.385,11,3.807,10.685v0.053
	c-0.053,1.969,1.391,3.676,3.334,4.069c-0.367,0.104-0.735,0.158-1.103,0.158c-0.261,0-0.524-0.027-0.787-0.078
	c0.551,1.68,2.126,2.86,3.886,2.887c-1.471,1.156-3.282,1.785-5.173,1.785c-0.315,0-0.656-0.027-0.971-0.052
	c1.89,1.207,4.122,1.862,6.38,1.862c4.805,0,8.848-2.6,10.79-7.01c0.655-1.521,1.051-3.176,1.051-4.831c0-0.184,0-0.368-0.026-0.551
	C22,8.4,22.709,7.666,23.262,6.825"/>
<path fill="#52AE30" d="M26.254,28.565v21.633c0,1.262-1.051,2.312-2.311,2.312H2.311C1.05,52.509,0,51.459,0,50.198V28.565
	c0-1.261,1.05-2.311,2.311-2.311h21.633C25.204,26.255,26.254,27.305,26.254,28.565 M23.262,33.08
	c-0.762,0.342-1.549,0.577-2.391,0.655c0.867-0.498,1.523-1.338,1.838-2.283c-0.812,0.474-1.705,0.814-2.65,0.996
	c-0.787-0.838-1.891-1.312-3.02-1.312c-2.311,0-4.176,1.864-4.176,4.175c0,0.315,0.027,0.631,0.105,0.944
	c-3.332-0.183-6.457-1.758-8.584-4.356c-0.367,0.629-0.552,1.364-0.552,2.1c0,1.393,0.683,2.678,1.864,3.467
	c-0.682-0.027-1.312-0.211-1.891-0.525v0.053c-0.053,1.969,1.392,3.676,3.334,4.068c-0.367,0.104-0.734,0.158-1.103,0.158
	c-0.261,0-0.524-0.027-0.787-0.078c0.551,1.68,2.126,2.86,3.886,2.887c-1.471,1.156-3.281,1.785-5.173,1.785
	c-0.315,0-0.655-0.027-0.971-0.052c1.89,1.207,4.122,1.862,6.38,1.862c4.805,0,8.848-2.6,10.79-7.01
	c0.655-1.521,1.051-3.176,1.051-4.83c0-0.184,0-0.368-0.026-0.551C22,34.655,22.709,33.921,23.262,33.08"/>
</svg>
