<?xml version="1.0" encoding="utf-8"?>
<!-- Generator: Adobe Illustrator 16.0.0, SVG Export Plug-In . SVG Version: 6.00 Build 0)  -->
<!DOCTYPE svg PUBLIC "-//W3C//DTD SVG 1.1//EN" "http://www.w3.org/Graphics/SVG/1.1/DTD/svg11.dtd">
<svg version="1.1" id="Layer_1" xmlns="http://www.w3.org/2000/svg" xmlns:xlink="http://www.w3.org/1999/xlink" x="0px" y="0px"
	 width="26.254px" height="52.508px" viewBox="0 0 26.254 52.508" enable-background="new 0 0 26.254 52.508" xml:space="preserve">
<path fill="#CDCCCC" d="M26.254,23.943c0,1.261-1.05,2.311-2.311,2.311H2.311C1.05,26.254,0,25.204,0,23.943V2.311
	C0,1.05,1.05,0,2.311,0h21.632c1.261,0,2.311,1.05,2.311,2.311V23.943z M16.725,12.286c1.392-0.577,2.178-1.89,2.178-3.387
	c0-3.361-3.202-3.648-5.8-3.648H7.009v15.752h6.644c3.15,0,6.301-1.183,6.301-4.831c0-2.074-1.234-3.387-3.229-3.808V12.286
	L16.725,12.286z M11.289,11.473V8.138h1.182c1.154,0,2.416,0.105,2.416,1.576c0,1.627-1.234,1.759-2.521,1.759H11.289z
	 M11.289,18.113v-3.938h1.838c1.393,0,2.757,0.158,2.757,1.918c0,1.891-1.759,2.021-3.23,2.021h-1.365V18.113z"/>
<path fill="#52AE30" d="M26.254,50.197c0,1.262-1.05,2.311-2.311,2.311H2.311C1.05,52.508,0,51.459,0,50.197V28.565
	c0-1.261,1.05-2.312,2.311-2.312h21.633c1.261,0,2.311,1.051,2.311,2.312V50.197z M16.725,38.541
	c1.392-0.578,2.178-1.891,2.178-3.389c0-3.359-3.202-3.646-5.801-3.646H7.009v15.752h6.644c3.15,0,6.301-1.184,6.301-4.832
	c0-2.074-1.234-3.387-3.229-3.809V38.541L16.725,38.541z M11.289,37.727v-3.334h1.182c1.154,0,2.416,0.105,2.416,1.576
	c0,1.627-1.234,1.758-2.521,1.758H11.289z M11.289,44.367V40.43h1.838c1.393,0,2.757,0.158,2.757,1.918
	c0,1.891-1.759,2.021-3.229,2.021h-1.365V44.367z"/>
</svg>
