<?xml version="1.0" encoding="utf-8"?>
<!-- Generator: Adobe Illustrator 16.0.0, SVG Export Plug-In . SVG Version: 6.00 Build 0)  -->
<!DOCTYPE svg PUBLIC "-//W3C//DTD SVG 1.1//EN" "http://www.w3.org/Graphics/SVG/1.1/DTD/svg11.dtd">
<svg version="1.1" id="Layer_1" xmlns="http://www.w3.org/2000/svg" xmlns:xlink="http://www.w3.org/1999/xlink" x="0px" y="0px"
	 width="58.183px" height="50.412px" viewBox="0 0 58.183 50.412" enable-background="new 0 0 58.183 50.412" xml:space="preserve">
<polyline fill="#FFFFFF" points="7.372,14.618 34.881,1.334 40.988,13.948 "/>
<polyline fill="none" stroke="#53AE47" stroke-width="2" stroke-miterlimit="10" points="7.372,14.618 34.881,1.334 40.988,13.948 
	"/>
<polyline fill="#FFFFFF" points="9.601,14.618 43.89,6.018 45.761,14.618 "/>
<polyline fill="none" stroke="#53AE47" stroke-width="2" stroke-miterlimit="10" points="9.601,14.618 43.89,6.018 45.761,14.618 
	"/>
<path fill="#FFFFFF" d="M51.966,49.412H5c-2.209,0-4-1.791-4-4V18.618c0-2.21,1.791-4,4-4h46.966c2.209,0,4,1.79,4,4v26.793
	C55.966,47.621,54.175,49.412,51.966,49.412"/>
<path fill="none" stroke="#53AE47" stroke-width="2" stroke-miterlimit="10" d="M51.966,49.412H5c-2.209,0-4-1.791-4-4V18.618
	c0-2.21,1.791-4,4-4h46.966c2.209,0,4,1.79,4,4v26.793C55.966,47.621,54.175,49.412,51.966,49.412z"/>
<path fill="#FFFFFF" d="M56.054,35.713h-6.017c-2.043,0-3.698-1.655-3.698-3.698s1.655-3.699,3.698-3.699h6.017
	c0.623,0,1.129,0.505,1.129,1.128v5.142C57.183,35.208,56.677,35.713,56.054,35.713"/>
<path fill="none" stroke="#53AE47" stroke-width="2" stroke-miterlimit="10" d="M56.054,35.713h-6.017
	c-2.043,0-3.698-1.655-3.698-3.698s1.655-3.699,3.698-3.699h6.017c0.623,0,1.129,0.505,1.129,1.128v5.142
	C57.183,35.208,56.677,35.713,56.054,35.713z"/>
<path fill="#53AE47" d="M51.106,32.014c0-0.671-0.544-1.215-1.215-1.215s-1.216,0.544-1.216,1.215s0.545,1.216,1.216,1.216
	S51.106,32.685,51.106,32.014"/>
</svg>
