<?xml version="1.0" encoding="utf-8"?>
<!-- Generator: Adobe Illustrator 13.0.0, SVG Export Plug-In . SVG Version: 6.00 Build 14948)  -->
<!DOCTYPE svg PUBLIC "-//W3C//DTD SVG 1.1//EN" "http://www.w3.org/Graphics/SVG/1.1/DTD/svg11.dtd">
<svg version="1.1" id="Layer_1" xmlns="http://www.w3.org/2000/svg" xmlns:xlink="http://www.w3.org/1999/xlink" x="0px" y="0px"
	 width="99.488px" height="34.646px" viewBox="143.226 5.093 99.488 34.646" enable-background="new 143.226 5.093 99.488 34.646"
	 xml:space="preserve">
<path fill="#53AE47" d="M218.767,16.554l-0.738,3.64c-1.74,7.915-2.385,10.467-3.896,18.338l-0.337,0.283l-4.801,0.141l-0.229-0.328
	l1.935-8.106l0.562-2.655c-2.062-0.048-4.123-0.084-6.188-0.084c-1.609,0-2.836,0.022-4.09,0.058
	c-0.707,3.184-1.299,5.99-2.201,10.693l-0.334,0.283l-4.809,0.141l-0.23-0.328l1.932-8.106l0.76-3.534
	c1.267-5.564,1.504-6.784,2.26-11.919l0.328-0.331c2.211-0.284,2.734-0.379,4.99-0.847l0.242,0.328l-0.508,2.337l-0.73,3.64
	l-0.772,3.441c1.729,0.045,3.467,0.071,5.207,0.071c1.836,0,3.049-0.032,5.084-0.075c0.664-3.017,0.931-4.66,1.51-8.564l0.326-0.331
	c2.221-0.284,2.733-0.379,4.996-0.847l0.235,0.328L218.767,16.554"/>
<path fill="#53AE47" d="M160.89,27.137c0.332-1.368,0.562-2.741,0.562-4.064c0-4.788-3.077-5.588-4.825-5.588
	c-7.438,0-8.39,11.548-8.39,13.301c0,3.788,2.273,5.442,4.835,5.442C158.144,36.228,160.034,31.021,160.89,27.137 M165.813,28.609
	c-1.039,4.077-3.938,11.13-12.836,11.13c-6.299,0-9.752-3.271-9.752-9.705c0-0.835,0.064-1.765,0.203-2.732
	c0.025-0.24,0.062-0.478,0.096-0.725c1.711-10.671,6.338-20.789,16.488-20.888c1.354-0.019,4.098-0.155,5.961-0.597l-0.68,4.26
	c-1.875,0.482-4.854,0.733-6.588,0.745c-2.16,0.021-3.652,0.841-4.686,1.834c-0.504,0.487-0.908,1.023-1.215,1.517
	c-0.308,0.485-0.531,0.929-0.695,1.263c1.354-0.423,2.844-0.688,4.516-0.688c6.197,0,9.896,3.461,9.896,9.563
	C166.522,25.244,166.239,26.949,165.813,28.609"/>
<path fill="#53AE47" d="M226.894,24.24c1.127-0.981,1.78-1.595,3.334-3.1c1.64-1.602,5.647-5.749,6.403-6.549l0.519-0.279h5.422
	l0.143,0.423c-0.473,0.423-0.709,0.614-2.595,2.212c-0.755,0.619-1.22,1.087-2.112,1.886l-6.14,5.657l7.315,13.905l-0.283,0.372
	l-5.237,0.146l-0.375-0.286c-1.228-2.924-1.556-3.58-3.249-7.023l-3.299-6.688c-1.037,4.633-1.682,7.553-2.844,13.617l-0.332,0.283
	l-4.803,0.14l-0.236-0.327l1.931-8.105l0.757-3.534c1.266-5.566,1.502-6.785,2.258-11.92l0.33-0.331
	c2.221-0.284,2.73-0.379,5.002-0.846l0.234,0.327l-0.51,2.337l-0.738,3.64L226.894,24.24"/>
<path fill="#53AE47" d="M185.192,32.83c-0.516,0.417-1.033,0.9-1.559,1.219c-1.229,0.762-2.842,1.095-4.113,1.095
	c-4.315,0-5.543-3.64-5.543-5.904c0-0.233,0.096-6.331,5.062-9.725c2.802-1.891,5.878-1.985,7.438-1.985
	c0.715,0,1.414,0.045,2.131,0.045L185.192,32.83 M194.242,14.401l-0.229-0.378l-6.539-0.045c-4.357,0-10.461,0.275-14.869,5.438
	c-1.984,2.357-3.789,6.423-3.789,10.15c0,5.901,3.931,9.312,8.761,9.312c4.022,0,6.11-1.752,6.915-2.411l-0.331,1.891l0.229,0.335
	l4.45-0.096l0.339-0.331c0.944-5.631,1.278-7.419,2.938-14.693L194.242,14.401z"/>
</svg>
